<svg xmlns:svg="http://www.w3.org/2000/svg" xmlns="http://www.w3.org/2000/svg" version="1.2" width="100%" height="100%" class="svg-logo">
            <defs />
            <metadata />
            <g transform="translate(-7.3145768,-853.28787)"><path d="M425.7143 280.93361-95.426697 278.95736 166.85528-171.37586z" transform="matrix(0.17640951,0,0,0.1541274,24.2312,949.4388) " class="triangle" /><path d="M425.7143 280.93361-95.426697 278.95736 166.85528-171.37586z" transform="matrix(0.17640951,0,0,0.1541274,70.667875,879.78403)" class="triangle" /><path d="M425.7143 280.93361-95.426697 278.95736 166.85528-171.37586z" transform="matrix(0.17640951,0,0,0.1541274,116.47476,949.72058)" class="triangle" /><g transform="matrix(0.2646896,0,0,0.26206785,80.12928,894.16571)" fill="#fff"><path d="m106.35 46.32c0 16.867-13.68 30.562-30.555 30.562-16.883 0-30.555-13.694-30.555-30.562 0-16.875 13.672-30.57 30.555-30.57 16.877 0 30.555 13.695 30.555 30.57h-8.555c0-12.148-9.853-22-22-22-12.148 0-22 9.852-22 22 0 12.141 9.852 21.992 22 21.992 12.147 0 22-9.853 22-21.992h8.555z" fill="#fff" /><path d="m152.7 0c-2.884 3.461-6.75 3.461-6.75 3.461L44.34 5.68C35.078 6 33.391 13.359 33.18 17.523c-0.883-1.312-2.383-2.164-4.07-2.164-2.719 0-4.914 2.195-4.914 4.922 0 2.711 2.195 4.891 4.914 4.891 1.898 0 3.539-1.086 4.353-2.656 0.438 2.586 1.695 6.883 5.272 9.211L21.914 59.07 12.436 60.015V56.89L0 57.781 1.32 74.688 30.804 71.071 46.859 44.587l8.32-12.492 4.586-0.594 9.767 9.766c-0.688 0.853-1.203 1.828-1.5 2.93H50.523V47.3h17.289c0.148 1.242 0.556 2.397 1.211 3.414l-12.078 12.07 2.188 2.188 12.031-12.04c1.016 0.711 2.203 1.164 3.477 1.359v17.102h3.086v-17.25c1.164-0.281 2.228-0.828 3.125-1.562L93.235 64.97 95.416 62.782 82.828 50.227c0.516-0.897 0.828-1.883 0.953-2.93H101.85V44.195H83.562C83.32 43.289 82.937 42.437 82.415 41.687l13-13-1.547-1.562 53.319-6.844c0 0 3.806-0.578 7.203 2.805L152.7 0zM74.641 29.594v8.75c-0.983 0.164-1.906 0.477-2.742 0.945l-8.266-8.281 11.008-1.414zm5.554 9.945c-0.75-0.477-1.586-0.828-2.469-1.047V29.187L92.421 27.312 80.195 39.539z" fill="#fff" /></g><g transform="matrix(0.18511345,0,0,0.17602402,145.59012,877.96502)" fill="#fff"><path d="m-6.28401 570.9325c0 6.9843-2.54102 12.65271-5.67191 12.65271-3.13089 0-5.6719-5.66841-5.6719-12.65271 0-6.98429 2.54101-12.6527 5.6719-12.6527 3.13089 0 5.67191 5.66841 5.67191 12.6527zm34.90401 0c0 6.9843-2.54102 12.65271-5.67191 12.65271-3.13089 0-5.6719-5.66841-5.6719-12.65271 0-6.98429 2.54101-12.6527 5.6719-12.6527 3.13089 0 5.67191 5.66841 5.67191 12.6527zM5.40919 607.05427c25.7985 1.44397 47.57975-4.50338 49.88244-26.53125 18.33469-10.88588 30.09375-29.01882 30.09375-54.3125 0-44.19372-35.86878-80.06251-79.97619-80.0625-44.10741-0.00001-79.97619 35.86878-79.97619 80.0625 0 25.29368 11.75906 43.42662 30.09375 54.3125 2.30269 22.02787 24.08394 27.97522 49.88244 26.53125zm0-75.8125c-19.98953 0-36.13243-16.22923-36.13244-36.21875 0-19.98953 16.22922-36.21877 36.13244-36.21875 19.90322-0.00002 36.13244 16.22922 36.13244 36.21875-0.00001 19.98952-16.14291 36.21875-36.13244 36.21875zm-63.31994-40.25c3.53358 5.59068 5.59375 12.18301 5.59375 19.28125 0.00001 11.24411-5.13826 21.32502-13.1875 27.96875-0.78502-3.98788-1.21875-8.19914-1.21875-12.6875 0-12.51988 3.19832-24.29445 8.8125-34.5625zm126.63988 0c5.61418 10.26805 8.8125 22.04262 8.8125 34.5625 0 4.48836-0.43373 8.69962-1.21875 12.6875-8.04924-6.64373-13.18751-16.72464-13.1875-27.96875 0-7.09824 2.06017-13.69057 5.59375-19.28125zM5.32288 601.02302c-25.56253 0-45.56919-10.22607-42.79613-24.40625 2.58845-13.23619 19.24623-24.4375 42.79613-24.4375 23.5499 0 40.20768 11.20131 42.79613 24.4375 2.77306 14.18018-17.2336 24.40625-42.79613 24.40625z" fill="#fff" /></g><rect width="2.3026316" height="17.923622" ry="0.89148897" x="98.655983" y="929.46857" class="powerLine" /><path d="m112.66447 131.9079a13.980263 12.993421 0 1 1-27.960521 0 13.980263 12.993421 0 1 1 27.960521 0z" transform="translate(1.0948773,819.25622)" class="power" /><g transform="matrix(0.28065887,0,0,0.24860938,36.066254,952.91996)" fill="#fff"><g fill="#fff"><path d="m71.094 89.16c-0.863 0-1.447 0.084-1.754 0.167v5.541c0.363 0.082 0.809 0.11 1.42 0.11 2.256 0 3.646-1.142 3.646-3.062 0-1.726-1.197-2.756-3.312-2.756z" fill="#fff" /><path d="m38.844 89.271h-0.053c-0.279 1.115-0.559 2.534-0.863 3.619l-1.115 3.98h4.148l-1.17-3.98c-0.334-1.113-0.668-2.503-0.947-3.619z" fill="#fff" /><path d="M99.873 36.23C99.867 35.762 99.719 35.3 99.398 34.935L79.73 12.471C79.726 12.465 79.72 12.463 79.714 12.457 79.597 12.326 79.462 12.218 79.318 12.123 79.275 12.095 79.232 12.07 79.187 12.045 79.06 11.977 78.929 11.921 78.792 11.88 78.755 11.869 78.722 11.854 78.685 11.844 78.535 11.809 78.382 11.787 78.226 11.787H29.893c-2.205 0-4 1.795-4 4v94c0 2.206 1.795 4 4 4h66c2.207 0 4-1.794 4-4V36.454c0-0.075-0.012-0.149-0.02-0.224zm-56.853 68.633-1.447-4.815h-5.371l-1.338 4.815h-4.398l5.736-18.766h5.566l5.818 18.766H43.02zm11.673 0.277c-2.146 0-4.262-0.557-5.318-1.142l0.863-3.506c1.141 0.584 2.893 1.166 4.705 1.166 1.947 0 2.979-0.805 2.979-2.029 0-1.17-0.891-1.837-3.146-2.646-3.119-1.084-5.148-2.811-5.148-5.54 0-3.2 2.672-5.649 7.098-5.649 2.117 0 3.676 0.444 4.789 0.943l-0.949 3.426c-0.75-0.361-2.088-0.892-3.924-0.892-1.838 0-2.729 0.836-2.729 1.811 0 1.196 1.059 1.727 3.48 2.644 3.313 1.225 4.871 2.952 4.871 5.597 0 3.147-2.422 5.817-7.571 5.817zm22.192-8.881c-1.447 1.365-3.592 1.978-6.098 1.978-0.557 0-1.057-0.028-1.447-0.083v6.71H65.135V86.349c1.311-0.224 3.148-0.39 5.736-0.39 2.617 0 4.484 0.502 5.734 1.504 1.199 0.945 2.006 2.507 2.006 4.343 0 1.838-0.611 3.395-1.726 4.453zm13.535 8.604-1.697-3.398c-0.697-1.306-1.141-2.283-1.67-3.369h-0.055c-0.391 1.086-0.863 2.063-1.449 3.369l-1.559 3.398h-4.844l5.43-9.494-5.236-9.271h4.875l1.641 3.426c0.557 1.143 0.975 2.06 1.42 3.116h0.057c0.445-1.196 0.807-2.03 1.279-3.116l1.586-3.426h4.844l-5.289 9.159 5.568 9.606H90.42zM29.893 79.704V15.787h46.334v20.466c0 1.104 0.895 2 2 2h17.666l0.002 41.451H29.893z" fill="#fff" /></g><g fill="#fff"><path d="m36.15 53.139 18.23-9.407v4.472l-13.787 6.708v0.084l13.787 6.707v4.473L36.15 56.768v-3.629z" fill="#fff" /><path d="M57.199 67.862 65.33 37.278h3.834l-8.127 30.584h-3.838z" fill="#fff" /><path d="m89.602 56.892-18.23 9.283V61.702L85.464 54.995V54.911L71.372 48.203v-4.472l18.23 9.281v3.88z" fill="#fff" /></g></g></g>
        </svg>
